# xmcd
#
# Track frame offsets: 
#        150
#        20550
#        39600
#        62550
#        84525
#        104793
#        122877
#
# Disc length: 1661 seconds
#
# Revision: 0
# Processed by: cddbd v1.5.2PL0 Copyright (c) Steve Scherf et al.
# Submitted via: ExactAudioCopy v0.99pb5
#
DISCID=5e067b07
DTITLE=The Super Fantastic Adventures Of Captain Magic - The Super Fan
DTITLE=tastic Adventures Of Captain Magic In His Amazing Wonderland
DYEAR=2009
DGENRE=Latin Funk
TTITLE0=3 Fu**ing Days
TTITLE1=The Gentleman Of Good Luck
TTITLE2=Don't Worry Be Happy
TTITLE3=D Funk
TTITLE4=Autumn Leaves
TTITLE5=Move Slowly
TTITLE6=Little Bit Of Bonus Track
EXTD=
EXTT0=
EXTT1=
EXTT2=
EXTT3=
EXTT4=
EXTT5=
EXTT6=
PLAYORDER=
